<svg width="201" height="40" viewBox="0 0 201 40" fill="none" xmlns="http://www.w3.org/2000/svg">
<rect x="0.5" width="200" height="40" rx="8" fill="#EEEEEE"/>
<path d="M91.6534 18.0398C91.5436 17.6951 91.3958 17.3864 91.2102 17.1136C91.0284 16.8371 90.8106 16.6023 90.5568 16.4091C90.303 16.2121 90.0133 16.0625 89.6875 15.9602C89.3655 15.858 89.0114 15.8068 88.625 15.8068C87.9697 15.8068 87.3788 15.9754 86.8523 16.3125C86.3258 16.6496 85.9091 17.1439 85.6023 17.7955C85.2992 18.4432 85.1477 19.2367 85.1477 20.1761C85.1477 21.1193 85.3011 21.9167 85.608 22.5682C85.9148 23.2197 86.3352 23.714 86.8693 24.0511C87.4034 24.3883 88.0114 24.5568 88.6932 24.5568C89.3258 24.5568 89.8769 24.428 90.3466 24.1705C90.8201 23.9129 91.1856 23.5492 91.4432 23.0795C91.7045 22.6061 91.8352 22.0492 91.8352 21.4091L92.2898 21.4943H88.9602V20.0455H93.5341V21.3693C93.5341 22.3466 93.3258 23.1951 92.9091 23.9148C92.4962 24.6307 91.9242 25.1837 91.1932 25.5739C90.4659 25.964 89.6326 26.1591 88.6932 26.1591C87.6402 26.1591 86.7159 25.9167 85.9205 25.4318C85.1288 24.947 84.5114 24.2595 84.0682 23.3693C83.625 22.4754 83.4034 21.4148 83.4034 20.1875C83.4034 19.2595 83.5322 18.4261 83.7898 17.6875C84.0473 16.9489 84.4091 16.322 84.875 15.8068C85.3447 15.2879 85.8958 14.892 86.5284 14.6193C87.1648 14.3428 87.8598 14.2045 88.6136 14.2045C89.2424 14.2045 89.8277 14.2973 90.3693 14.483C90.9148 14.6686 91.3996 14.9318 91.8239 15.2727C92.2519 15.6136 92.6061 16.0189 92.8864 16.4886C93.1667 16.9545 93.3561 17.4716 93.4545 18.0398H91.6534ZM99.3026 26.1761C98.4844 26.1761 97.7704 25.9886 97.1605 25.6136C96.5507 25.2386 96.0772 24.714 95.7401 24.0398C95.4029 23.3655 95.2344 22.5777 95.2344 21.6761C95.2344 20.7708 95.4029 19.9792 95.7401 19.3011C96.0772 18.6231 96.5507 18.0966 97.1605 17.7216C97.7704 17.3466 98.4844 17.1591 99.3026 17.1591C100.121 17.1591 100.835 17.3466 101.445 17.7216C102.054 18.0966 102.528 18.6231 102.865 19.3011C103.202 19.9792 103.371 20.7708 103.371 21.6761C103.371 22.5777 103.202 23.3655 102.865 24.0398C102.528 24.714 102.054 25.2386 101.445 25.6136C100.835 25.9886 100.121 26.1761 99.3026 26.1761ZM99.3082 24.75C99.8385 24.75 100.278 24.6098 100.626 24.3295C100.975 24.0492 101.232 23.6761 101.399 23.2102C101.57 22.7443 101.655 22.2311 101.655 21.6705C101.655 21.1136 101.57 20.6023 101.399 20.1364C101.232 19.6667 100.975 19.2898 100.626 19.0057C100.278 18.7216 99.8385 18.5795 99.3082 18.5795C98.7741 18.5795 98.331 18.7216 97.9787 19.0057C97.6302 19.2898 97.3707 19.6667 97.2003 20.1364C97.0336 20.6023 96.9503 21.1136 96.9503 21.6705C96.9503 22.2311 97.0336 22.7443 97.2003 23.2102C97.3707 23.6761 97.6302 24.0492 97.9787 24.3295C98.331 24.6098 98.7741 24.75 99.3082 24.75ZM108.943 26.1761C108.125 26.1761 107.411 25.9886 106.801 25.6136C106.191 25.2386 105.718 24.714 105.381 24.0398C105.044 23.3655 104.875 22.5777 104.875 21.6761C104.875 20.7708 105.044 19.9792 105.381 19.3011C105.718 18.6231 106.191 18.0966 106.801 17.7216C107.411 17.3466 108.125 17.1591 108.943 17.1591C109.761 17.1591 110.475 17.3466 111.085 17.7216C111.695 18.0966 112.169 18.6231 112.506 19.3011C112.843 19.9792 113.011 20.7708 113.011 21.6761C113.011 22.5777 112.843 23.3655 112.506 24.0398C112.169 24.714 111.695 25.2386 111.085 25.6136C110.475 25.9886 109.761 26.1761 108.943 26.1761ZM108.949 24.75C109.479 24.75 109.919 24.6098 110.267 24.3295C110.616 24.0492 110.873 23.6761 111.04 23.2102C111.21 22.7443 111.295 22.2311 111.295 21.6705C111.295 21.1136 111.21 20.6023 111.04 20.1364C110.873 19.6667 110.616 19.2898 110.267 19.0057C109.919 18.7216 109.479 18.5795 108.949 18.5795C108.415 18.5795 107.972 18.7216 107.619 19.0057C107.271 19.2898 107.011 19.6667 106.841 20.1364C106.674 20.6023 106.591 21.1136 106.591 21.6705C106.591 22.2311 106.674 22.7443 106.841 23.2102C107.011 23.6761 107.271 24.0492 107.619 24.3295C107.972 24.6098 108.415 24.75 108.949 24.75ZM118.567 29.4545C117.874 29.4545 117.277 29.3636 116.777 29.1818C116.281 29 115.875 28.7595 115.561 28.4602C115.247 28.161 115.012 27.8333 114.857 27.4773L116.317 26.875C116.419 27.0417 116.555 27.2178 116.726 27.4034C116.9 27.5928 117.135 27.7538 117.43 27.8864C117.73 28.0189 118.114 28.0852 118.584 28.0852C119.228 28.0852 119.76 27.928 120.18 27.6136C120.601 27.303 120.811 26.8068 120.811 26.125V24.4091H120.703C120.601 24.5947 120.453 24.8011 120.26 25.0284C120.071 25.2557 119.809 25.4527 119.476 25.6193C119.143 25.786 118.709 25.8693 118.175 25.8693C117.485 25.8693 116.864 25.7083 116.311 25.3864C115.762 25.0606 115.326 24.5814 115.004 23.9489C114.686 23.3125 114.527 22.5303 114.527 21.6023C114.527 20.6742 114.684 19.8788 114.999 19.2159C115.317 18.553 115.752 18.0455 116.305 17.6932C116.858 17.3371 117.485 17.1591 118.186 17.1591C118.728 17.1591 119.165 17.25 119.499 17.4318C119.832 17.6098 120.091 17.8182 120.277 18.0568C120.466 18.2955 120.612 18.5057 120.714 18.6875H120.839V17.2727H122.504V26.1932C122.504 26.9432 122.33 27.5587 121.982 28.0398C121.633 28.5208 121.161 28.8769 120.567 29.108C119.976 29.339 119.309 29.4545 118.567 29.4545ZM118.55 24.4602C119.038 24.4602 119.451 24.3466 119.788 24.1193C120.129 23.8883 120.387 23.5587 120.561 23.1307C120.739 22.6989 120.828 22.1818 120.828 21.5795C120.828 20.9924 120.741 20.4754 120.567 20.0284C120.393 19.5814 120.137 19.233 119.8 18.983C119.463 18.7292 119.046 18.6023 118.55 18.6023C118.038 18.6023 117.612 18.7348 117.271 19C116.93 19.2614 116.673 19.6174 116.499 20.0682C116.328 20.5189 116.243 21.0227 116.243 21.5795C116.243 22.1515 116.33 22.6534 116.504 23.0852C116.679 23.517 116.936 23.8542 117.277 24.0966C117.622 24.339 118.046 24.4602 118.55 24.4602ZM126.482 14.3636V26H124.783V14.3636H126.482ZM132.528 26.1761C131.669 26.1761 130.928 25.9924 130.307 25.625C129.689 25.2538 129.212 24.733 128.875 24.0625C128.542 23.3883 128.375 22.5985 128.375 21.6932C128.375 20.7992 128.542 20.0114 128.875 19.3295C129.212 18.6477 129.682 18.1155 130.284 17.733C130.89 17.3504 131.598 17.1591 132.409 17.1591C132.902 17.1591 133.379 17.2405 133.841 17.4034C134.303 17.5663 134.718 17.822 135.085 18.1705C135.453 18.5189 135.742 18.9716 135.955 19.5284C136.167 20.0814 136.273 20.7538 136.273 21.5455V22.1477H129.335V20.875H134.608C134.608 20.428 134.517 20.0322 134.335 19.6875C134.153 19.339 133.898 19.0644 133.568 18.8636C133.242 18.6629 132.86 18.5625 132.42 18.5625C131.943 18.5625 131.527 18.6799 131.17 18.9148C130.818 19.1458 130.545 19.4489 130.352 19.8239C130.163 20.1951 130.068 20.5985 130.068 21.0341V22.0284C130.068 22.6117 130.17 23.108 130.375 23.517C130.583 23.9261 130.873 24.2386 131.244 24.4545C131.616 24.6667 132.049 24.7727 132.545 24.7727C132.867 24.7727 133.161 24.7273 133.426 24.6364C133.691 24.5417 133.92 24.4015 134.114 24.2159C134.307 24.0303 134.455 23.8011 134.557 23.5284L136.165 23.8182C136.036 24.2917 135.805 24.7064 135.472 25.0625C135.142 25.4148 134.727 25.6894 134.227 25.8864C133.731 26.0795 133.165 26.1761 132.528 26.1761Z" fill="#967171"/>
<g clip-path="url(#clip0_24_329)">
<path d="M34.4895 20.1858C34.4895 19.3665 34.4214 18.7685 34.2742 18.1484H24.6992V21.8468H30.3195C30.2062 22.7658 29.5943 24.15 28.2346 25.08L28.2155 25.2039L31.2429 27.4957L31.4527 27.5161C33.3789 25.7777 34.4895 23.2198 34.4895 20.1858Z" fill="#4285F4"/>
<path d="M24.6993 29.9322C27.4527 29.9322 29.7643 29.0463 31.4527 27.5183L28.2346 25.0822C27.3734 25.669 26.2176 26.0787 24.6993 26.0787C22.0024 26.0787 19.7135 24.3403 18.8976 21.9375L18.778 21.9474L15.63 24.3281L15.5889 24.4399C17.2659 27.6954 20.7106 29.9322 24.6993 29.9322Z" fill="#34A853"/>
<path d="M18.8975 21.9383C18.6822 21.3182 18.5576 20.6538 18.5576 19.9673C18.5576 19.2807 18.6822 18.6164 18.8861 17.9963L18.8804 17.8642L15.693 15.4453L15.5888 15.4938C14.8976 16.8447 14.501 18.3617 14.501 19.9673C14.501 21.5729 14.8976 23.0898 15.5888 24.4407L18.8975 21.9383Z" fill="#FBBC05"/>
<path d="M24.6993 13.8534C26.6142 13.8534 27.906 14.6617 28.6425 15.3372L31.5207 12.5911C29.753 10.9855 27.4527 10 24.6993 10C20.7106 10 17.2659 12.2367 15.5889 15.4921L18.8863 17.9947C19.7135 15.5918 22.0024 13.8534 24.6993 13.8534Z" fill="#EB4335"/>
</g>
<defs>
<clipPath id="clip0_24_329">
<rect width="20" height="20" fill="white" transform="translate(14.5 10)"/>
</clipPath>
</defs>
</svg>
