<svg width="21" height="20" viewBox="0 0 21 20" fill="none" xmlns="http://www.w3.org/2000/svg">
<g clip-path="url(#clip0_24_331)">
<path d="M20.4895 10.1858C20.4895 9.36645 20.4214 8.76851 20.2742 8.14844H10.6992V11.8468H16.3195C16.2062 12.7658 15.5943 14.15 14.2346 15.08L14.2155 15.2039L17.2429 17.4957L17.4527 17.5161C19.3789 15.7777 20.4895 13.2198 20.4895 10.1858Z" fill="#4285F4"/>
<path d="M10.6993 19.9322C13.4527 19.9322 15.7643 19.0463 17.4527 17.5183L14.2346 15.0822C13.3734 15.669 12.2176 16.0787 10.6993 16.0787C8.00242 16.0787 5.71352 14.3403 4.89759 11.9375L4.77799 11.9474L1.63003 14.3281L1.58887 14.4399C3.26588 17.6954 6.7106 19.9322 10.6993 19.9322Z" fill="#34A853"/>
<path d="M4.89748 11.9383C4.68219 11.3182 4.55759 10.6538 4.55759 9.9673C4.55759 9.28073 4.68219 8.61638 4.88615 7.99631L4.88045 7.86424L1.69304 5.44531L1.58876 5.49379C0.897576 6.8447 0.500977 8.36172 0.500977 9.9673C0.500977 11.5729 0.897576 13.0898 1.58876 14.4407L4.89748 11.9383Z" fill="#FBBC05"/>
<path d="M10.6993 3.85336C12.6142 3.85336 13.906 4.66168 14.6425 5.33718L17.5207 2.59107C15.753 0.985496 13.4527 0 10.6993 0C6.7106 0 3.26588 2.23672 1.58887 5.49214L4.88626 7.99466C5.71352 5.59183 8.00242 3.85336 10.6993 3.85336Z" fill="#EB4335"/>
</g>
<defs>
<clipPath id="clip0_24_331">
<rect width="20" height="20" fill="white" transform="translate(0.5)"/>
</clipPath>
</defs>
</svg>
